<svg width="54" height="56" viewBox="0 0 54 56" fill="none" xmlns="http://www.w3.org/2000/svg">
<path d="M18.7483 11.6277C18.7483 12.0322 18.909 12.4202 19.195 12.7062C19.481 12.9922 19.869 13.1529 20.2735 13.1529C20.678 13.1529 21.0659 12.9922 21.352 12.7062C21.638 12.4202 21.7987 12.0322 21.7987 11.6277C21.7987 11.2232 21.638 10.8353 21.352 10.5493C21.0659 10.2632 20.678 10.1025 20.2735 10.1025C19.869 10.1025 19.481 10.2632 19.195 10.5493C18.909 10.8353 18.7483 11.2232 18.7483 11.6277ZM21.9625 13.6878C21.9625 14.0923 22.1232 14.4803 22.4092 14.7663C22.6952 15.0523 23.0832 15.213 23.4877 15.213C23.8922 15.213 24.2801 15.0523 24.5661 14.7663C24.8522 14.4803 25.0129 14.0923 25.0129 13.6878C25.0129 13.2833 24.8522 12.8954 24.5661 12.6094C24.2801 12.3233 23.8922 12.1627 23.4877 12.1627C23.0832 12.1627 22.6952 12.3233 22.4092 12.6094C22.1232 12.8954 21.9625 13.2833 21.9625 13.6878ZM15.6737 29.9167C16.897 30.2784 18.2223 30.2086 19.6492 29.7085C19.8176 27.1617 19.2962 25.1581 18.3532 25.026C17.3186 24.8806 16.1501 27.04 15.6737 29.9167ZM42.4258 40.6545C43.543 42.1183 44.4069 44.0942 44.8914 46.37C46.5495 45.0141 48.5583 44.2205 50.7234 44.2205C51.5164 44.2205 52.2892 44.3272 53.0309 44.529C48.8369 45.6693 45.6186 49.8506 45.1077 55.0165H14.6004C14.23 53.5689 14.0444 52.0802 14.0479 50.586C14.0479 47.392 14.8686 44.4748 16.221 42.2515C15.3444 39.2282 14.8541 35.8474 14.8541 32.2802C14.8541 31.4918 14.8778 30.7121 14.9251 29.9433C8.85143 28.5574 4.23808 25.21 2.95483 21.0961C2.51165 21.0411 2.08381 20.8986 1.69619 20.6769C1.30857 20.4551 0.968897 20.1585 0.696926 19.8043C0.424955 19.4501 0.226109 19.0454 0.11195 18.6137C-0.00220886 18.1819 -0.0294035 17.7318 0.0319474 17.2895C0.0932983 16.8471 0.241971 16.4214 0.469321 16.037C0.69667 15.6527 0.998162 15.3173 1.35627 15.0505C1.71437 14.7837 2.12194 14.5907 2.55528 14.4828C2.98863 14.375 3.4391 14.3543 3.8805 14.422C6.59464 10.0163 13.316 6.89845 21.1781 6.89845C23.496 6.89845 25.7142 7.16952 27.7599 7.66436C27.9929 3.83596 28.8955 0.983398 29.9717 0.983398C31.1909 0.983398 32.1858 4.64051 32.2406 9.22964L32.4568 9.33345C34.2246 5.61347 36.3152 3.08677 37.3557 3.52855C38.4642 3.99918 37.9768 7.67013 36.2841 11.8532C37.5708 12.9975 38.5461 14.2946 39.1315 15.6932C41.751 19.9189 43.374 25.7902 43.374 32.2808C43.374 35.232 43.0383 38.0557 42.4258 40.6545Z" fill="url(#paint0_linear_1:291)"/>
<defs>
<linearGradient id="paint0_linear_1:291" x1="-1.82133" y1="1.91696" x2="46.241" y2="24.3288" gradientUnits="userSpaceOnUse">
<stop stop-color="#CD8B65"/>
<stop offset="1" stop-color="#BB6B3D"/>
</linearGradient>
</defs>
</svg>
